<svg xmlns="http://www.w3.org/2000/svg" viewBox="0 0 1200 800" role="img" aria-label="Scope snapshot">
  <defs>
    <filter id="blur"><feGaussianBlur stdDeviation="5"/></filter>
    <filter id="grain"><feTurbulence type="fractalNoise" baseFrequency="0.75" numOctaves="3" seed="31"/><feColorMatrix type="saturate" values="0"/><feComponentTransfer><feFuncA type="table" tableValues="0 0.14"/></feComponentTransfer></filter>
  </defs>
  <rect width="1200" height="800" fill="#111510"/>
  <circle cx="600" cy="400" r="330" fill="#1e2a1f" opacity="0.72"/>
  <circle cx="600" cy="400" r="294" fill="#0d120f" opacity="0.98"/>
  <circle cx="600" cy="400" r="260" fill="#293627" opacity="0.96"/>
  <path d="M314 430 C410 390, 520 378, 640 388 S874 410, 926 380" fill="none" stroke="#7d7f68" stroke-width="60" opacity="0.32" filter="url(#blur)"/>
  <path d="M316 444 C412 406, 516 398, 640 406 S868 428, 922 402" fill="none" stroke="#574e3c" stroke-width="12" opacity="0.85"/>
  <path d="M420 352 C476 326, 560 318, 654 332 S830 356, 900 332" fill="none" stroke="#8a856e" stroke-width="18" opacity="0.28"/>
  <path d="M572 186 v428" stroke="#d6ceb6" stroke-width="6" opacity="0.88"/>
  <path d="M356 400 h488" stroke="#d6ceb6" stroke-width="6" opacity="0.88"/>
  <path d="M600 400 m-14 0 a14 14 0 1 0 28 0 a14 14 0 1 0 -28 0" fill="#d6ceb6" opacity="0.92"/>
  <path d="M594 400 h12" stroke="#1d2017" stroke-width="4"/>
  <path d="M600 394 v12" stroke="#1d2017" stroke-width="4"/>
  <ellipse cx="770" cy="352" rx="32" ry="48" fill="#151913" opacity="0.82"/>
  <ellipse cx="776" cy="346" rx="22" ry="34" fill="#6a5f44" opacity="0.82"/>
  <rect x="0" y="0" width="1200" height="800" fill="none" stroke="#ddd3bb" stroke-width="2" opacity="0.22"/>
  <g filter="url(#grain)"><rect width="1200" height="800" fill="#fff" opacity="0.52"/></g>
</svg>
